# xmcd
#
# Track frame offsets: 
#        150
#        2250
#        20250
#        28438
#        42086
#        62795
#        79695
#        91995
#        113595
#        138526
#        161026
#        184276
#        203817
#        221383
#        237477
#        253359
#
# Disc length: 3557 seconds
#
# Revision: 0
# Processed by: cddbd v1.5.2PL0 Copyright (c) Steve Scherf et al.
# Submitted via: ExactAudioCopy v0.99pb5
#
DISCID=d90de310
DTITLE=Huge Lucifer - Karma
DYEAR=2005
DGENRE=Rap
TTITLE0=Ortni
TTITLE1=Tahdot Olla
TTITLE2=P‰iv‰st Toiseen
TTITLE3=Fakta
TTITLE4=Sitstop
TTITLE5=Blaadaan
TTITLE6=Tieto Lis‰‰ Tuskaa
TTITLE7=En Oo Vihane
TTITLE8=Tahtoisin
TTITLE9=Massii
TTITLE10=Jos et Tied‰
TTITLE11=Duunarin Filosofia
TTITLE12=Kippis Muistoille
TTITLE13=Karma
TTITLE14=Fakta (Ilstrumental)
TTITLE15=Karma (Ilstrumental)
EXTD=
EXTT0=
EXTT1=
EXTT2=
EXTT3=
EXTT4=
EXTT5=
EXTT6=
EXTT7=
EXTT8=
EXTT9=
EXTT10=
EXTT11=
EXTT12=
EXTT13=
EXTT14=
EXTT15=
PLAYORDER=
